<svg xmlns="http://www.w3.org/2000/svg" xmlns:xlink="http://www.w3.org/1999/xlink" width="200" zoomAndPan="magnify" viewBox="0 0 150 149.999998" height="200" preserveAspectRatio="xMidYMid meet" version="1.0"><defs><clipPath id="782a9c54e2"><path d="M 4.929688 4.929688 L 145.179688 4.929688 L 145.179688 145.179688 L 4.929688 145.179688 Z M 4.929688 4.929688 " clip-rule="nonzero"/></clipPath><clipPath id="7abd82c0e0"><path d="M 4.929688 4.929688 L 145.179688 4.929688 L 145.179688 145.179688 L 4.929688 145.179688 Z M 4.929688 4.929688 " clip-rule="nonzero"/></clipPath></defs><g clip-path="url(#782a9c54e2)"><path fill="#ffbe0b" d="M 75.054688 4.929688 C 36.328125 4.929688 4.929688 36.328125 4.929688 75.054688 C 4.929688 113.785156 36.328125 145.179688 75.054688 145.179688 C 113.785156 145.179688 145.179688 113.785156 145.179688 75.054688 C 145.179688 36.328125 113.785156 4.929688 75.054688 4.929688 " fill-opacity="1" fill-rule="nonzero"/></g><path fill="#ff006e" d="M 133.046875 73.105469 C 133.046875 73.457031 133.042969 73.8125 133.039062 74.164062 L 88.695312 74.164062 C 88.308594 71.820312 87.332031 69.675781 85.925781 67.886719 L 125.738281 44.898438 C 130.394531 53.25 133.046875 62.867188 133.046875 73.105469 " fill-opacity="1" fill-rule="nonzero"/><path fill="#ffffff" d="M 75.050781 74.164062 L 75.050781 12.636719 C 64.214844 12.644531 53.582031 15.488281 44.234375 20.785156 L 75.050781 74.164062 " fill-opacity="1" fill-rule="nonzero"/><path fill="#ffffff" d="M 128.710938 43.183594 L 85.925781 67.886719 C 84.605469 66.210938 82.910156 64.847656 80.960938 63.925781 L 105.867188 20.785156 C 115.59375 26.296875 123.328125 34.097656 128.710938 43.183594 " fill-opacity="1" fill-rule="nonzero"/><path fill="#ff006e" d="M 105.867188 20.785156 C 104.558594 20.042969 103.210938 19.34375 101.832031 18.6875 C 93.171875 14.574219 84.039062 12.628906 75.050781 12.636719 L 75.050781 74.164062 L 105.867188 20.785156 " fill-opacity="1" fill-rule="nonzero"/><path fill="#ffffff" d="M 64.183594 67.886719 C 62.777344 69.675781 61.800781 71.820312 61.414062 74.164062 L 17.074219 74.164062 C 17.066406 73.8125 17.0625 73.457031 17.0625 73.105469 C 17.0625 62.867188 19.714844 53.25 24.371094 44.902344 L 64.183594 67.886719 " fill-opacity="1" fill-rule="nonzero"/><path fill="#ff006e" d="M 124.820312 102.898438 C 119.660156 111.496094 112.332031 118.652344 103.59375 123.601562 L 82.921875 87.796875 C 85.132812 86.265625 86.875 84.105469 87.890625 81.574219 L 124.820312 102.898438 " fill-opacity="1" fill-rule="nonzero"/><path fill="#ffffff" d="M 133.039062 74.164062 C 132.851562 84.65625 129.875 94.472656 124.820312 102.898438 L 87.890625 81.574219 C 88.527344 79.984375 88.878906 78.246094 88.878906 76.429688 C 88.878906 75.65625 88.816406 74.902344 88.695312 74.164062 L 133.039062 74.164062 " fill-opacity="1" fill-rule="nonzero"/><path fill="#ffffff" d="M 103.59375 123.601562 C 95.167969 128.371094 85.429688 131.097656 75.054688 131.097656 L 75.050781 131.097656 L 75.050781 90.253906 L 75.054688 90.253906 C 77.976562 90.253906 80.691406 89.347656 82.921875 87.796875 L 103.59375 123.601562 " fill-opacity="1" fill-rule="nonzero"/><path fill="#ff006e" d="M 62.21875 81.570312 L 25.289062 102.894531 C 20.234375 94.46875 17.261719 84.65625 17.074219 74.164062 L 61.414062 74.164062 C 61.292969 74.902344 61.230469 75.65625 61.230469 76.429688 C 61.230469 78.246094 61.582031 79.980469 62.21875 81.570312 " fill-opacity="1" fill-rule="nonzero"/><path fill="#ff006e" d="M 75.050781 90.253906 L 75.050781 131.097656 C 64.675781 131.097656 54.9375 128.371094 46.511719 123.597656 L 67.179688 87.792969 C 69.414062 89.34375 72.128906 90.253906 75.050781 90.253906 " fill-opacity="1" fill-rule="nonzero"/><path fill="#ff006e" d="M 69.140625 63.929688 C 67.195312 64.851562 65.5 66.214844 64.183594 67.886719 L 21.398438 43.1875 C 27.082031 33.585938 35.039062 26 44.234375 20.785156 L 69.140625 63.929688 " fill-opacity="1" fill-rule="nonzero"/><path fill="#ffffff" d="M 67.179688 87.792969 L 46.511719 123.597656 C 37.773438 118.648438 30.449219 111.496094 25.289062 102.894531 L 62.21875 81.570312 C 63.234375 84.101562 64.972656 86.261719 67.179688 87.792969 " fill-opacity="1" fill-rule="nonzero"/><path fill="#d6005c" d="M 75.050781 74.164062 L 62.21875 81.570312 C 61.582031 79.980469 61.230469 78.246094 61.230469 76.429688 C 61.230469 75.65625 61.292969 74.902344 61.414062 74.164062 L 75.050781 74.164062 " fill-opacity="1" fill-rule="nonzero"/><path fill="#f2f2f2" d="M 75.050781 74.164062 L 61.414062 74.164062 C 61.800781 71.820312 62.777344 69.675781 64.183594 67.886719 L 75.050781 74.164062 " fill-opacity="1" fill-rule="nonzero"/><path fill="#d6005c" d="M 75.050781 74.164062 L 64.183594 67.886719 C 65.5 66.214844 67.195312 64.851562 69.140625 63.929688 L 75.050781 74.164062 " fill-opacity="1" fill-rule="nonzero"/><path fill="#f2f2f2" d="M 85.925781 67.886719 L 75.050781 74.164062 L 80.960938 63.925781 C 82.910156 64.847656 84.605469 66.210938 85.925781 67.886719 " fill-opacity="1" fill-rule="nonzero"/><path fill="#d6005c" d="M 80.960938 63.925781 L 75.050781 74.164062 L 69.140625 63.929688 C 70.933594 63.078125 72.9375 62.601562 75.054688 62.601562 C 77.167969 62.601562 79.171875 63.078125 80.960938 63.925781 " fill-opacity="1" fill-rule="nonzero"/><path fill="#d6005c" d="M 88.695312 74.164062 L 75.050781 74.164062 L 85.925781 67.886719 C 87.332031 69.675781 88.308594 71.820312 88.695312 74.164062 " fill-opacity="1" fill-rule="nonzero"/><path fill="#f2f2f2" d="M 88.878906 76.429688 C 88.878906 78.246094 88.527344 79.984375 87.890625 81.574219 L 75.050781 74.164062 L 88.695312 74.164062 C 88.816406 74.902344 88.878906 75.65625 88.878906 76.429688 " fill-opacity="1" fill-rule="nonzero"/><path fill="#d6005c" d="M 87.890625 81.574219 C 86.875 84.105469 85.132812 86.265625 82.921875 87.796875 L 75.050781 74.164062 L 87.890625 81.574219 " fill-opacity="1" fill-rule="nonzero"/><path fill="#f2f2f2" d="M 82.921875 87.796875 C 80.691406 89.347656 77.976562 90.253906 75.054688 90.253906 L 75.050781 90.253906 L 75.050781 74.164062 L 82.921875 87.796875 " fill-opacity="1" fill-rule="nonzero"/><path fill="#d6005c" d="M 75.050781 74.164062 L 75.050781 90.253906 C 72.128906 90.253906 69.414062 89.34375 67.179688 87.792969 L 75.050781 74.164062 " fill-opacity="1" fill-rule="nonzero"/><path fill="#f2f2f2" d="M 75.050781 74.164062 L 67.179688 87.792969 C 64.972656 86.261719 63.234375 84.101562 62.21875 81.570312 L 75.050781 74.164062 " fill-opacity="1" fill-rule="nonzero"/><path fill="#ffbe0b" d="M 87.507812 75.054688 C 87.507812 81.929688 81.929688 87.507812 75.054688 87.507812 C 68.179688 87.507812 62.601562 81.929688 62.601562 75.054688 C 62.601562 68.179688 68.179688 62.601562 75.054688 62.601562 C 81.929688 62.601562 87.507812 68.179688 87.507812 75.054688 " fill-opacity="1" fill-rule="nonzero"/><path fill="#e8ad0a" d="M 85.550781 75.054688 C 85.550781 80.851562 80.851562 85.550781 75.054688 85.550781 C 69.257812 85.550781 64.558594 80.851562 64.558594 75.054688 C 64.558594 69.257812 69.257812 64.558594 75.054688 64.558594 C 80.851562 64.558594 85.550781 69.257812 85.550781 75.054688 " fill-opacity="1" fill-rule="nonzero"/><path fill="#d6005c" d="M 83.480469 75.054688 C 83.480469 79.710938 79.710938 83.480469 75.054688 83.480469 C 70.398438 83.480469 66.628906 79.710938 66.628906 75.054688 C 66.628906 70.398438 70.398438 66.628906 75.054688 66.628906 C 79.710938 66.628906 83.480469 70.398438 83.480469 75.054688 " fill-opacity="1" fill-rule="nonzero"/><path fill="#d6005c" d="M 129.480469 105.589844 C 123.90625 115.546875 115.933594 123.4375 106.644531 128.882812 C 97.109375 134.460938 86.191406 137.464844 75.050781 137.472656 C 66.066406 137.476562 56.9375 135.535156 48.277344 131.425781 C 46.621094 130.636719 45.015625 129.785156 43.460938 128.875 C 33.632812 123.121094 25.890625 114.996094 20.625 105.585938 C 15.285156 96.050781 12.492188 85.199219 12.640625 74.164062 C 12.761719 65.464844 14.710938 56.652344 18.683594 48.277344 C 19.519531 46.523438 20.425781 44.824219 21.398438 43.1875 L 24.371094 44.902344 C 34.28125 27.132812 53.261719 15.113281 75.054688 15.113281 C 96.84375 15.113281 115.828125 27.128906 125.738281 44.898438 L 128.710938 43.183594 C 134.253906 52.527344 137.300781 63.222656 137.464844 74.164062 C 137.605469 83.4375 135.671875 92.886719 131.421875 101.832031 C 130.8125 103.113281 130.164062 104.367188 129.480469 105.589844 Z M 75.054688 7.945312 C 39.070312 7.945312 9.894531 37.117188 9.894531 73.105469 C 9.894531 109.09375 39.070312 138.265625 75.054688 138.265625 C 111.042969 138.265625 140.214844 109.09375 140.214844 73.105469 C 140.214844 37.117188 111.042969 7.945312 75.054688 7.945312 " fill-opacity="1" fill-rule="nonzero"/><path fill="#c20053" d="M 133.039062 74.164062 C 133.042969 73.8125 133.046875 73.457031 133.046875 73.105469 C 133.046875 62.867188 130.394531 53.25 125.738281 44.898438 L 128.710938 43.183594 C 134.253906 52.527344 137.300781 63.222656 137.464844 74.164062 L 133.039062 74.164062 " fill-opacity="1" fill-rule="nonzero"/><path fill="#ebebeb" d="M 131.421875 101.832031 C 130.8125 103.113281 130.164062 104.367188 129.480469 105.589844 L 124.820312 102.898438 C 129.875 94.472656 132.851562 84.65625 133.039062 74.164062 L 137.464844 74.164062 C 137.605469 83.4375 135.671875 92.886719 131.421875 101.832031 " fill-opacity="1" fill-rule="nonzero"/><path fill="#c20053" d="M 129.480469 105.589844 C 123.90625 115.546875 115.933594 123.4375 106.644531 128.882812 L 103.59375 123.601562 C 112.332031 118.652344 119.660156 111.496094 124.820312 102.898438 L 129.480469 105.589844 " fill-opacity="1" fill-rule="nonzero"/><path fill="#ebebeb" d="M 106.644531 128.882812 C 97.109375 134.460938 86.191406 137.464844 75.050781 137.472656 L 75.050781 131.097656 L 75.054688 131.097656 C 85.429688 131.097656 95.167969 128.371094 103.59375 123.601562 L 106.644531 128.882812 " fill-opacity="1" fill-rule="nonzero"/><path fill="#c20053" d="M 75.050781 131.097656 L 75.050781 137.472656 C 66.066406 137.476562 56.9375 135.535156 48.277344 131.425781 C 46.621094 130.636719 45.015625 129.785156 43.460938 128.875 L 46.511719 123.597656 C 54.9375 128.371094 64.675781 131.097656 75.050781 131.097656 " fill-opacity="1" fill-rule="nonzero"/><path fill="#ebebeb" d="M 46.511719 123.597656 L 43.460938 128.875 C 33.632812 123.121094 25.890625 114.996094 20.625 105.585938 L 25.289062 102.894531 C 30.449219 111.496094 37.773438 118.648438 46.511719 123.597656 " fill-opacity="1" fill-rule="nonzero"/><path fill="#c20053" d="M 25.289062 102.894531 L 20.625 105.585938 C 15.285156 96.050781 12.492188 85.199219 12.640625 74.164062 L 17.074219 74.164062 C 17.261719 84.65625 20.234375 94.46875 25.289062 102.894531 " fill-opacity="1" fill-rule="nonzero"/><path fill="#ebebeb" d="M 17.0625 73.105469 C 17.0625 73.457031 17.066406 73.8125 17.074219 74.164062 L 12.640625 74.164062 C 12.761719 65.464844 14.710938 56.652344 18.683594 48.277344 C 19.519531 46.523438 20.425781 44.824219 21.398438 43.1875 L 24.371094 44.902344 C 19.714844 53.25 17.0625 62.867188 17.0625 73.105469 " fill-opacity="1" fill-rule="nonzero"/><path fill="#d6005c" d="M 75.054688 134.78125 C 42.066406 134.78125 15.328125 108.042969 15.328125 75.054688 C 15.328125 42.066406 42.066406 15.328125 75.054688 15.328125 C 108.042969 15.328125 134.78125 42.066406 134.78125 75.054688 C 134.78125 108.042969 108.042969 134.78125 75.054688 134.78125 Z M 75.054688 7.945312 C 37.992188 7.945312 7.945312 37.992188 7.945312 75.054688 C 7.945312 112.121094 37.992188 142.164062 75.054688 142.164062 C 112.121094 142.164062 142.164062 112.121094 142.164062 75.054688 C 142.164062 37.992188 112.121094 7.945312 75.054688 7.945312 " fill-opacity="1" fill-rule="nonzero"/><g clip-path="url(#7abd82c0e0)"><path fill="#ffbe0b" d="M 75.054688 137.464844 C 40.585938 137.464844 12.644531 109.523438 12.644531 75.054688 C 12.644531 40.585938 40.585938 12.644531 75.054688 12.644531 C 109.523438 12.644531 137.464844 40.585938 137.464844 75.054688 C 137.464844 109.523438 109.523438 137.464844 75.054688 137.464844 Z M 75.054688 4.929688 C 36.328125 4.929688 4.929688 36.328125 4.929688 75.054688 C 4.929688 113.785156 36.328125 145.179688 75.054688 145.179688 C 113.785156 145.179688 145.179688 113.785156 145.179688 75.054688 C 145.179688 36.328125 113.785156 4.929688 75.054688 4.929688 " fill-opacity="1" fill-rule="nonzero"/><path fill="#e8ad0a" d="M 75.054688 141.183594 C 38.535156 141.183594 8.929688 111.574219 8.929688 75.054688 C 8.929688 38.535156 38.535156 8.929688 75.054688 8.929688 C 111.574219 8.929688 141.183594 38.535156 141.183594 75.054688 C 141.183594 111.574219 111.574219 141.183594 75.054688 141.183594 Z M 75.054688 4.929688 C 36.328125 4.929688 4.929688 36.328125 4.929688 75.054688 C 4.929688 113.785156 36.328125 145.179688 75.054688 145.179688 C 113.785156 145.179688 145.179688 113.785156 145.179688 75.054688 C 145.179688 36.328125 113.785156 4.929688 75.054688 4.929688 " fill-opacity="1" fill-rule="nonzero"/></g><path fill="#ffde85" d="M 75.054688 11.578125 C 73.59375 11.578125 72.40625 10.390625 72.40625 8.929688 C 72.40625 7.46875 73.59375 6.28125 75.054688 6.28125 C 76.515625 6.28125 77.703125 7.46875 77.703125 8.929688 C 77.703125 10.390625 76.515625 11.578125 75.054688 11.578125 " fill-opacity="1" fill-rule="nonzero"/><path fill="#ffffff" d="M 76.652344 8.929688 C 76.652344 9.808594 75.9375 10.527344 75.054688 10.527344 C 74.171875 10.527344 73.457031 9.808594 73.457031 8.929688 C 73.457031 8.046875 74.171875 7.332031 75.054688 7.332031 C 75.9375 7.332031 76.652344 8.046875 76.652344 8.929688 " fill-opacity="1" fill-rule="nonzero"/><path fill="#ffde85" d="M 57.9375 13.332031 C 56.96875 13.332031 56.117188 12.675781 55.863281 11.738281 C 55.714844 11.183594 55.792969 10.601562 56.078125 10.105469 C 56.367188 9.609375 56.828125 9.253906 57.382812 9.105469 C 57.566406 9.054688 57.753906 9.03125 57.941406 9.03125 C 58.910156 9.03125 59.765625 9.6875 60.015625 10.625 C 60.164062 11.179688 60.089844 11.757812 59.800781 12.253906 C 59.515625 12.753906 59.050781 13.109375 58.496094 13.257812 C 58.3125 13.304688 58.125 13.332031 57.9375 13.332031 " fill-opacity="1" fill-rule="nonzero"/><path fill="#ffffff" d="M 59.191406 10.84375 C 59.378906 11.535156 58.964844 12.25 58.273438 12.433594 C 57.582031 12.617188 56.871094 12.207031 56.6875 11.515625 C 56.503906 10.824219 56.914062 10.113281 57.605469 9.929688 C 58.296875 9.742188 59.007812 10.152344 59.191406 10.84375 " fill-opacity="1" fill-rule="nonzero"/><path fill="#ffde85" d="M 41.992188 20.4375 C 41.046875 20.4375 40.167969 19.929688 39.699219 19.113281 C 39.34375 18.5 39.25 17.785156 39.433594 17.101562 C 39.617188 16.417969 40.054688 15.847656 40.667969 15.492188 C 41.070312 15.261719 41.527344 15.136719 41.988281 15.136719 C 42.933594 15.136719 43.8125 15.644531 44.285156 16.464844 C 45.015625 17.726562 44.582031 19.351562 43.316406 20.082031 C 42.914062 20.3125 42.457031 20.4375 41.992188 20.4375 " fill-opacity="1" fill-rule="nonzero"/><path fill="#ffffff" d="M 43.375 16.988281 C 43.816406 17.753906 43.554688 18.730469 42.789062 19.171875 C 42.027344 19.609375 41.046875 19.347656 40.609375 18.585938 C 40.167969 17.820312 40.429688 16.84375 41.191406 16.402344 C 41.957031 15.960938 42.933594 16.222656 43.375 16.988281 " fill-opacity="1" fill-rule="nonzero"/><path fill="#ffde85" d="M 28.296875 30.445312 C 27.722656 30.445312 27.179688 30.222656 26.773438 29.816406 C 26.367188 29.410156 26.144531 28.871094 26.144531 28.296875 C 26.144531 27.722656 26.367188 27.179688 26.773438 26.773438 C 27.179688 26.371094 27.722656 26.144531 28.296875 26.144531 C 28.871094 26.144531 29.410156 26.371094 29.816406 26.773438 C 30.65625 27.613281 30.65625 28.976562 29.816406 29.816406 C 29.410156 30.222656 28.871094 30.445312 28.296875 30.445312 " fill-opacity="1" fill-rule="nonzero"/><path fill="#ffffff" d="M 29.210938 27.378906 C 29.71875 27.886719 29.71875 28.707031 29.210938 29.210938 C 28.707031 29.71875 27.886719 29.71875 27.378906 29.210938 C 26.871094 28.707031 26.871094 27.886719 27.378906 27.378906 C 27.886719 26.871094 28.707031 26.871094 29.210938 27.378906 " fill-opacity="1" fill-rule="nonzero"/><path fill="#ffde85" d="M 17.785156 44.640625 C 17.324219 44.640625 16.867188 44.519531 16.464844 44.285156 C 15.851562 43.929688 15.410156 43.359375 15.226562 42.675781 C 15.046875 41.992188 15.140625 41.28125 15.492188 40.667969 C 15.964844 39.851562 16.84375 39.34375 17.789062 39.34375 C 18.25 39.34375 18.710938 39.464844 19.113281 39.699219 C 19.722656 40.050781 20.164062 40.621094 20.34375 41.304688 C 20.527344 41.988281 20.433594 42.703125 20.082031 43.316406 C 19.609375 44.132812 18.730469 44.640625 17.785156 44.640625 " fill-opacity="1" fill-rule="nonzero"/><path fill="#ffffff" d="M 18.585938 40.609375 C 19.347656 41.046875 19.609375 42.027344 19.171875 42.789062 C 18.730469 43.554688 17.753906 43.816406 16.988281 43.375 C 16.222656 42.933594 15.960938 41.957031 16.402344 41.191406 C 16.84375 40.429688 17.820312 40.167969 18.585938 40.609375 " fill-opacity="1" fill-rule="nonzero"/><path fill="#ffde85" d="M 11.183594 60.089844 C 10.996094 60.089844 10.808594 60.066406 10.625 60.015625 C 9.480469 59.710938 8.796875 58.527344 9.105469 57.382812 C 9.355469 56.445312 10.210938 55.789062 11.179688 55.789062 C 11.367188 55.789062 11.554688 55.8125 11.738281 55.863281 C 12.292969 56.011719 12.753906 56.367188 13.042969 56.863281 C 13.328125 57.363281 13.40625 57.941406 13.257812 58.496094 C 13.007812 59.433594 12.152344 60.089844 11.183594 60.089844 " fill-opacity="1" fill-rule="nonzero"/><path fill="#ffffff" d="M 11.515625 56.6875 C 12.207031 56.871094 12.617188 57.582031 12.433594 58.273438 C 12.25 58.964844 11.535156 59.378906 10.84375 59.191406 C 10.152344 59.007812 9.742188 58.296875 9.929688 57.605469 C 10.113281 56.914062 10.824219 56.503906 11.515625 56.6875 " fill-opacity="1" fill-rule="nonzero"/><path fill="#ffde85" d="M 8.929688 77.703125 C 7.46875 77.703125 6.28125 76.515625 6.28125 75.054688 C 6.28125 73.59375 7.46875 72.40625 8.929688 72.40625 C 10.390625 72.40625 11.578125 73.59375 11.578125 75.054688 C 11.578125 76.515625 10.390625 77.703125 8.929688 77.703125 " fill-opacity="1" fill-rule="nonzero"/><path fill="#ffffff" d="M 8.929688 73.457031 C 9.808594 73.457031 10.527344 74.171875 10.527344 75.054688 C 10.527344 75.9375 9.808594 76.652344 8.929688 76.652344 C 8.046875 76.652344 7.332031 75.9375 7.332031 75.054688 C 7.332031 74.171875 8.046875 73.457031 8.929688 73.457031 " fill-opacity="1" fill-rule="nonzero"/><path fill="#ffde85" d="M 11.179688 94.320312 C 10.210938 94.320312 9.355469 93.664062 9.105469 92.726562 C 8.796875 91.582031 9.480469 90.398438 10.625 90.09375 C 10.808594 90.042969 10.996094 90.019531 11.183594 90.019531 C 12.152344 90.019531 13.007812 90.675781 13.257812 91.613281 C 13.40625 92.167969 13.328125 92.746094 13.042969 93.246094 C 12.753906 93.742188 12.292969 94.097656 11.738281 94.246094 C 11.554688 94.296875 11.367188 94.320312 11.179688 94.320312 " fill-opacity="1" fill-rule="nonzero"/><path fill="#ffffff" d="M 10.84375 90.917969 C 11.535156 90.730469 12.25 91.144531 12.433594 91.835938 C 12.617188 92.527344 12.207031 93.238281 11.515625 93.421875 C 10.824219 93.605469 10.113281 93.199219 9.929688 92.503906 C 9.742188 91.8125 10.152344 91.101562 10.84375 90.917969 " fill-opacity="1" fill-rule="nonzero"/><path fill="#ffde85" d="M 17.789062 110.765625 C 16.84375 110.765625 15.964844 110.261719 15.492188 109.441406 C 15.140625 108.828125 15.046875 108.117188 15.226562 107.433594 C 15.410156 106.75 15.851562 106.179688 16.464844 105.824219 C 16.867188 105.59375 17.324219 105.46875 17.785156 105.46875 C 18.730469 105.46875 19.609375 105.976562 20.082031 106.792969 C 20.8125 108.058594 20.375 109.683594 19.113281 110.414062 C 18.710938 110.644531 18.25 110.765625 17.789062 110.765625 " fill-opacity="1" fill-rule="nonzero"/><path fill="#ffffff" d="M 16.988281 106.734375 C 17.753906 106.292969 18.730469 106.554688 19.171875 107.320312 C 19.609375 108.082031 19.347656 109.0625 18.585938 109.5 C 17.820312 109.941406 16.84375 109.679688 16.402344 108.917969 C 15.960938 108.152344 16.222656 107.175781 16.988281 106.734375 " fill-opacity="1" fill-rule="nonzero"/><path fill="#ffde85" d="M 28.296875 123.964844 C 27.722656 123.964844 27.179688 123.742188 26.773438 123.335938 C 26.367188 122.929688 26.144531 122.386719 26.144531 121.8125 C 26.144531 121.238281 26.367188 120.699219 26.773438 120.292969 C 27.179688 119.886719 27.722656 119.664062 28.296875 119.664062 C 28.871094 119.664062 29.410156 119.886719 29.816406 120.292969 C 30.65625 121.132812 30.65625 122.496094 29.816406 123.335938 C 29.410156 123.742188 28.871094 123.964844 28.296875 123.964844 " fill-opacity="1" fill-rule="nonzero"/><path fill="#ffffff" d="M 27.378906 120.898438 C 27.886719 120.390625 28.707031 120.390625 29.210938 120.898438 C 29.71875 121.402344 29.71875 122.222656 29.210938 122.730469 C 28.707031 123.238281 27.886719 123.238281 27.378906 122.730469 C 26.871094 122.222656 26.871094 121.402344 27.378906 120.898438 " fill-opacity="1" fill-rule="nonzero"/><path fill="#ffde85" d="M 41.988281 134.972656 C 41.527344 134.972656 41.070312 134.847656 40.667969 134.617188 C 39.402344 133.886719 38.96875 132.261719 39.699219 131 C 40.167969 130.179688 41.046875 129.671875 41.992188 129.671875 C 42.457031 129.671875 42.914062 129.796875 43.316406 130.027344 C 44.582031 130.757812 45.015625 132.382812 44.285156 133.648438 C 43.8125 134.464844 42.933594 134.972656 41.988281 134.972656 " fill-opacity="1" fill-rule="nonzero"/><path fill="#ffffff" d="M 40.609375 131.523438 C 41.046875 130.761719 42.027344 130.5 42.789062 130.9375 C 43.554688 131.378906 43.816406 132.355469 43.375 133.121094 C 42.933594 133.886719 41.957031 134.148438 41.191406 133.707031 C 40.429688 133.265625 40.167969 132.289062 40.609375 131.523438 " fill-opacity="1" fill-rule="nonzero"/><path fill="#ffde85" d="M 57.941406 141.078125 C 57.753906 141.078125 57.566406 141.054688 57.382812 141.003906 C 56.828125 140.855469 56.367188 140.5 56.078125 140.003906 C 55.792969 139.507812 55.714844 138.925781 55.863281 138.371094 C 56.117188 137.433594 56.96875 136.777344 57.9375 136.777344 C 58.125 136.777344 58.3125 136.804688 58.496094 136.851562 C 59.050781 137 59.515625 137.355469 59.800781 137.855469 C 60.089844 138.351562 60.164062 138.929688 60.015625 139.484375 C 59.765625 140.421875 58.910156 141.078125 57.941406 141.078125 " fill-opacity="1" fill-rule="nonzero"/><path fill="#ffffff" d="M 56.6875 138.59375 C 56.871094 137.902344 57.582031 137.492188 58.273438 137.675781 C 58.964844 137.863281 59.378906 138.574219 59.191406 139.265625 C 59.007812 139.957031 58.296875 140.367188 57.605469 140.179688 C 56.914062 139.996094 56.503906 139.285156 56.6875 138.59375 " fill-opacity="1" fill-rule="nonzero"/><path fill="#ffde85" d="M 75.054688 143.828125 C 73.59375 143.828125 72.40625 142.640625 72.40625 141.183594 C 72.40625 139.722656 73.59375 138.535156 75.054688 138.535156 C 76.515625 138.535156 77.703125 139.722656 77.703125 141.183594 C 77.703125 142.640625 76.515625 143.828125 75.054688 143.828125 " fill-opacity="1" fill-rule="nonzero"/><path fill="#ffffff" d="M 73.457031 141.183594 C 73.457031 140.300781 74.171875 139.585938 75.054688 139.585938 C 75.9375 139.585938 76.652344 140.300781 76.652344 141.183594 C 76.652344 142.0625 75.9375 142.777344 75.054688 142.777344 C 74.171875 142.777344 73.457031 142.0625 73.457031 141.183594 " fill-opacity="1" fill-rule="nonzero"/><path fill="#ffde85" d="M 92.167969 141.078125 C 91.199219 141.078125 90.34375 140.421875 90.09375 139.484375 C 89.945312 138.929688 90.019531 138.351562 90.308594 137.855469 C 90.59375 137.355469 91.058594 137 91.613281 136.851562 C 91.796875 136.804688 91.984375 136.777344 92.171875 136.777344 C 93.140625 136.777344 93.992188 137.433594 94.246094 138.371094 C 94.394531 138.925781 94.320312 139.507812 94.03125 140.003906 C 93.746094 140.5 93.28125 140.855469 92.726562 141.003906 C 92.542969 141.054688 92.355469 141.078125 92.167969 141.078125 " fill-opacity="1" fill-rule="nonzero"/><path fill="#ffffff" d="M 90.917969 139.265625 C 90.730469 138.574219 91.144531 137.863281 91.835938 137.675781 C 92.527344 137.492188 93.238281 137.902344 93.421875 138.59375 C 93.605469 139.285156 93.195312 139.996094 92.503906 140.179688 C 91.8125 140.367188 91.105469 139.957031 90.917969 139.265625 " fill-opacity="1" fill-rule="nonzero"/><path fill="#ffde85" d="M 108.121094 134.972656 C 107.175781 134.972656 106.296875 134.464844 105.824219 133.648438 C 105.09375 132.382812 105.53125 130.757812 106.792969 130.027344 C 107.195312 129.796875 107.652344 129.671875 108.117188 129.671875 C 109.0625 129.671875 109.941406 130.179688 110.414062 131 C 111.140625 132.261719 110.707031 133.886719 109.441406 134.617188 C 109.039062 134.847656 108.582031 134.972656 108.121094 134.972656 " fill-opacity="1" fill-rule="nonzero"/><path fill="#ffffff" d="M 106.734375 133.121094 C 106.292969 132.355469 106.554688 131.378906 107.320312 130.9375 C 108.082031 130.5 109.0625 130.761719 109.5 131.523438 C 109.941406 132.289062 109.679688 133.265625 108.917969 133.707031 C 108.152344 134.148438 107.175781 133.886719 106.734375 133.121094 " fill-opacity="1" fill-rule="nonzero"/><path fill="#ffde85" d="M 121.8125 123.964844 C 121.238281 123.964844 120.699219 123.742188 120.292969 123.335938 C 119.886719 122.929688 119.664062 122.386719 119.664062 121.8125 C 119.664062 121.238281 119.886719 120.699219 120.292969 120.292969 C 120.699219 119.886719 121.238281 119.664062 121.8125 119.664062 C 122.386719 119.664062 122.929688 119.886719 123.335938 120.292969 C 124.171875 121.132812 124.171875 122.496094 123.335938 123.335938 C 122.929688 123.742188 122.386719 123.964844 121.8125 123.964844 " fill-opacity="1" fill-rule="nonzero"/><path fill="#ffffff" d="M 120.898438 122.730469 C 120.390625 122.222656 120.390625 121.402344 120.898438 120.898438 C 121.402344 120.390625 122.222656 120.390625 122.730469 120.898438 C 123.238281 121.402344 123.238281 122.222656 122.730469 122.730469 C 122.222656 123.238281 121.402344 123.238281 120.898438 122.730469 " fill-opacity="1" fill-rule="nonzero"/><path fill="#ffde85" d="M 132.320312 110.765625 C 131.859375 110.765625 131.398438 110.644531 131 110.414062 C 130.386719 110.058594 129.949219 109.488281 129.765625 108.804688 C 129.582031 108.121094 129.675781 107.40625 130.027344 106.792969 C 130.5 105.976562 131.378906 105.46875 132.324219 105.46875 C 132.789062 105.46875 133.246094 105.59375 133.648438 105.824219 C 134.910156 106.554688 135.347656 108.179688 134.617188 109.441406 C 134.144531 110.261719 133.265625 110.765625 132.320312 110.765625 " fill-opacity="1" fill-rule="nonzero"/><path fill="#ffffff" d="M 131.523438 109.5 C 130.761719 109.0625 130.5 108.082031 130.9375 107.320312 C 131.378906 106.554688 132.355469 106.292969 133.121094 106.734375 C 133.886719 107.175781 134.148438 108.152344 133.707031 108.917969 C 133.265625 109.679688 132.289062 109.941406 131.523438 109.5 " fill-opacity="1" fill-rule="nonzero"/><path fill="#ffde85" d="M 138.929688 94.320312 C 138.742188 94.320312 138.554688 94.292969 138.371094 94.246094 C 137.816406 94.097656 137.355469 93.742188 137.066406 93.246094 C 136.78125 92.746094 136.703125 92.167969 136.851562 91.613281 C 137.105469 90.675781 137.957031 90.019531 138.929688 90.019531 C 139.113281 90.019531 139.300781 90.046875 139.484375 90.09375 C 140.039062 90.242188 140.503906 90.597656 140.789062 91.09375 C 141.078125 91.59375 141.152344 92.171875 141.003906 92.726562 C 140.753906 93.664062 139.898438 94.320312 138.929688 94.320312 " fill-opacity="1" fill-rule="nonzero"/><path fill="#ffffff" d="M 138.59375 93.421875 C 137.902344 93.238281 137.492188 92.527344 137.675781 91.835938 C 137.863281 91.144531 138.574219 90.730469 139.265625 90.917969 C 139.957031 91.105469 140.367188 91.8125 140.179688 92.503906 C 139.996094 93.195312 139.285156 93.605469 138.59375 93.421875 " fill-opacity="1" fill-rule="nonzero"/><path fill="#ffde85" d="M 141.183594 77.703125 C 139.722656 77.703125 138.535156 76.515625 138.535156 75.054688 C 138.535156 73.59375 139.722656 72.40625 141.183594 72.40625 C 142.640625 72.40625 143.832031 73.59375 143.832031 75.054688 C 143.832031 76.515625 142.640625 77.703125 141.183594 77.703125 " fill-opacity="1" fill-rule="nonzero"/><path fill="#ffde85" d="M 141.183594 77.703125 C 139.722656 77.703125 138.535156 76.515625 138.535156 75.054688 C 138.535156 73.59375 139.722656 72.40625 141.183594 72.40625 C 142.640625 72.40625 143.832031 73.59375 143.832031 75.054688 C 143.832031 76.515625 142.640625 77.703125 141.183594 77.703125 " fill-opacity="1" fill-rule="nonzero"/><path fill="#ffffff" d="M 141.183594 76.652344 C 140.300781 76.652344 139.585938 75.9375 139.585938 75.054688 C 139.585938 74.171875 140.300781 73.457031 141.183594 73.457031 C 142.0625 73.457031 142.777344 74.171875 142.777344 75.054688 C 142.777344 75.9375 142.0625 76.652344 141.183594 76.652344 " fill-opacity="1" fill-rule="nonzero"/><path fill="#ffde85" d="M 138.929688 60.089844 C 137.957031 60.089844 137.105469 59.433594 136.851562 58.496094 C 136.703125 57.941406 136.78125 57.363281 137.066406 56.863281 C 137.355469 56.367188 137.816406 56.011719 138.371094 55.863281 C 138.554688 55.816406 138.742188 55.789062 138.929688 55.789062 C 139.898438 55.789062 140.753906 56.445312 141.003906 57.382812 C 141.152344 57.9375 141.078125 58.515625 140.789062 59.015625 C 140.503906 59.511719 140.039062 59.867188 139.484375 60.015625 C 139.300781 60.066406 139.113281 60.089844 138.929688 60.089844 " fill-opacity="1" fill-rule="nonzero"/><path fill="#ffffff" d="M 139.265625 59.191406 C 138.574219 59.378906 137.863281 58.964844 137.675781 58.273438 C 137.492188 57.582031 137.902344 56.871094 138.59375 56.6875 C 139.285156 56.503906 139.996094 56.914062 140.179688 57.605469 C 140.367188 58.296875 139.957031 59.007812 139.265625 59.191406 " fill-opacity="1" fill-rule="nonzero"/><path fill="#ffde85" d="M 132.324219 44.640625 C 131.378906 44.640625 130.5 44.132812 130.027344 43.316406 C 129.675781 42.703125 129.582031 41.988281 129.765625 41.304688 C 129.949219 40.621094 130.386719 40.050781 131 39.699219 C 131.398438 39.464844 131.859375 39.34375 132.320312 39.34375 C 133.265625 39.34375 134.144531 39.851562 134.617188 40.667969 C 135.347656 41.933594 134.910156 43.554688 133.648438 44.285156 C 133.246094 44.519531 132.789062 44.640625 132.324219 44.640625 " fill-opacity="1" fill-rule="nonzero"/><path fill="#ffffff" d="M 133.121094 43.375 C 132.355469 43.816406 131.378906 43.554688 130.9375 42.789062 C 130.5 42.027344 130.761719 41.046875 131.523438 40.609375 C 132.289062 40.167969 133.265625 40.429688 133.707031 41.191406 C 134.148438 41.957031 133.886719 42.933594 133.121094 43.375 " fill-opacity="1" fill-rule="nonzero"/><path fill="#ffde85" d="M 121.8125 30.445312 C 121.238281 30.445312 120.699219 30.222656 120.292969 29.816406 C 119.886719 29.410156 119.664062 28.871094 119.664062 28.296875 C 119.664062 27.722656 119.886719 27.179688 120.292969 26.773438 C 120.699219 26.371094 121.238281 26.144531 121.8125 26.144531 C 122.386719 26.144531 122.929688 26.371094 123.335938 26.773438 C 124.171875 27.613281 124.171875 28.976562 123.335938 29.816406 C 122.929688 30.222656 122.386719 30.445312 121.8125 30.445312 " fill-opacity="1" fill-rule="nonzero"/><path fill="#ffffff" d="M 122.730469 29.210938 C 122.222656 29.71875 121.402344 29.71875 120.898438 29.210938 C 120.390625 28.707031 120.390625 27.886719 120.898438 27.378906 C 121.402344 26.871094 122.222656 26.871094 122.730469 27.378906 C 123.238281 27.886719 123.238281 28.707031 122.730469 29.210938 " fill-opacity="1" fill-rule="nonzero"/><path fill="#ffde85" d="M 108.117188 20.4375 C 107.652344 20.4375 107.195312 20.3125 106.792969 20.082031 C 105.53125 19.351562 105.09375 17.726562 105.824219 16.464844 C 106.296875 15.644531 107.175781 15.136719 108.121094 15.136719 C 108.582031 15.136719 109.039062 15.261719 109.441406 15.492188 C 110.707031 16.222656 111.140625 17.847656 110.414062 19.113281 C 109.941406 19.929688 109.0625 20.4375 108.117188 20.4375 " fill-opacity="1" fill-rule="nonzero"/><path fill="#ffffff" d="M 109.5 18.585938 C 109.0625 19.347656 108.082031 19.609375 107.320312 19.171875 C 106.554688 18.730469 106.292969 17.753906 106.734375 16.988281 C 107.175781 16.222656 108.152344 15.960938 108.917969 16.402344 C 109.679688 16.84375 109.941406 17.820312 109.5 18.585938 " fill-opacity="1" fill-rule="nonzero"/><path fill="#ffde85" d="M 92.171875 13.332031 C 91.984375 13.332031 91.796875 13.304688 91.613281 13.257812 C 91.058594 13.109375 90.59375 12.753906 90.308594 12.253906 C 90.019531 11.757812 89.945312 11.179688 90.09375 10.625 C 90.34375 9.6875 91.199219 9.03125 92.167969 9.03125 C 92.355469 9.03125 92.542969 9.054688 92.726562 9.105469 C 93.28125 9.253906 93.746094 9.609375 94.03125 10.105469 C 94.320312 10.601562 94.394531 11.183594 94.246094 11.738281 C 93.992188 12.675781 93.140625 13.332031 92.171875 13.332031 " fill-opacity="1" fill-rule="nonzero"/><path fill="#ffffff" d="M 93.421875 11.515625 C 93.238281 12.207031 92.527344 12.617188 91.835938 12.433594 C 91.144531 12.25 90.730469 11.535156 90.917969 10.84375 C 91.105469 10.152344 91.8125 9.742188 92.503906 9.929688 C 93.195312 10.113281 93.605469 10.824219 93.421875 11.515625 " fill-opacity="1" fill-rule="nonzero"/></svg>