<svg width="32" height="32" viewBox="0 0 32 32" fill="none" xmlns="http://www.w3.org/2000/svg">
<path d="M24.8339 9.89919C24.5428 9.76462 24.2031 9.7875 23.934 9.95781C23.6639 10.1299 23.5001 10.4284 23.5001 10.7488V12.3125C23.5001 12.8298 23.0798 13.25 22.5626 13.25C22.0993 13.25 21.7074 12.9168 21.6315 12.4636C20.8687 7.73575 17.3953 0 16 0C14.6047 0 11.1313 7.73575 10.3695 12.4581C10.2926 12.9167 9.90075 13.25 9.4375 13.25C8.92025 13.25 8.5 12.8298 8.5 12.3125V10.7487C8.5 10.4283 8.33613 10.1299 8.06606 9.95775C7.796 9.78744 7.45812 9.76456 7.16612 9.89913C3.97456 11.3878 1.9375 17.8752 1.9375 21.6875C1.9375 27.7593 7.72 32 16 32C24.28 32 30.0625 27.7593 30.0625 21.6875C30.0625 17.8752 28.0254 11.3878 24.8339 9.89919Z" fill="url(#paint0_linear_36_1501)"/>
<path d="M20.5477 19.3199C20.3765 19.0434 20.0753 18.875 19.7503 18.875H17.6702L16.9094 15.8354C16.8142 15.4546 16.4928 15.1735 16.1028 15.1305C15.7046 15.0893 15.3375 15.2934 15.1616 15.6432L11.4116 23.1432C11.2661 23.4334 11.2816 23.7786 11.4528 24.0551C11.624 24.3316 11.9253 24.5 12.2503 24.5H14.3303L15.0911 27.5396C15.1863 27.9204 15.5077 28.2015 15.8977 28.2445C16.2989 28.2867 16.6669 28.0748 16.8389 27.7318L20.5889 20.2318C20.7345 19.9416 20.7189 19.5964 20.5477 19.3199Z" fill="url(#paint1_linear_36_1501)"/>
<defs>
<linearGradient id="paint0_linear_36_1501" x1="16" y1="32" x2="16" y2="0" gradientUnits="userSpaceOnUse">
<stop stop-color="#FD5900"/>
<stop offset="1" stop-color="#FFDE00"/>
</linearGradient>
<linearGradient id="paint1_linear_36_1501" x1="16.0003" y1="28.2499" x2="16.0003" y2="15.1252" gradientUnits="userSpaceOnUse">
<stop stop-color="#FFE59A"/>
<stop offset="1" stop-color="#FFFFD5"/>
</linearGradient>
</defs>
</svg>
